<svg xmlns="http://www.w3.org/2000/svg" width="2944.91907" height="2624.4458" viewBox="0 0 2944.91907 2624.4458">
	<title>scientistOath</title>
	<path
		d="M1990.05,962.99c-6.19006-82.06-40.9-146.14-111.94006-189.54-49.65-30.33-104.04993-45.41-161.34-51.16-22.27-2.24-45.41-6.78-66.95-3.15-42.88013,7.23-74.48,34.9-102.34009,67.06-9.57007,11.05-8.88989,21.89.79,30.3,10.62,9.23,22.79,17.87,35.78,22.99,42.03,16.56,84.68994,22.34,128.43994,4.13,35.48-14.77,66-5.19,95.62,18.73,33.9,27.37,39.62,64.56,44.95007,103.32,5.58,40.57-5.92,74.55-39.23,98.53-20.02,14.42-41.66016,27.65-64.41016,36.91-30.30994,12.35-62.38989,20.31995-94.73,30.49,2.78,1.06995,5.8,2.11,8.73,3.37,45.18005,19.46,92.49,35.25,134.77,59.72,29.07007,16.81006,47.72,12.14,72.25-5.04993C1949.47,1134.24,1997.67993,1064.11,1990.05,962.99ZM1659.47,772c-5.31995-7.31-11.09-11.8-10.68994-15.64,0.41992-4.15,6.62-7.71,10.3-11.52,3.7,3.72,9.86987,7.13,10.37988,11.24C1669.93994,759.95,1664.43994,764.56,1659.47,772Z"
		transform="translate(-27.54046 -179.69434)" style="fill:#1c95d6"/>
	<path
		d="M1808.62,1773.64c-2.05994,56.61-29.78992,98.72-76.45007,129.05994-3.40991,2.21-10.2699,2.36011-13.92993.44006-33.81006-17.71008-67.27-36.1-100.84-54.29,17.64-7.43005,35.83-13.4,52.36-22.41,33.3999-18.17993,42.33008-40.13989,36.34-77.52-8.89-55.5-44.44006-84.27-95.63-98.34985-36.98-10.17017-74.79-9.87012-112.62988-9.25C1430.35,1642.40991,1363.91992,1634.89,1300.01,1612.72c-26.46-9.18994-52.65-20.84-76.59009-35.3-97.04993-58.62988-128.2-161.74-79.71-264.43994,10.65-22.56006,27.41-42.32007,42.24-62.73,2.28-3.14,10.54-5.34009,13.99-3.68994,47.99,22.96,99.04,34.7699,155.90015,43.51-7.56006,3.31995-11.61011,4.68994-15.25,6.7699-20.61011,11.83-42.42017,22.11-61.3501,36.2301-22.3999,16.73-32.74,41.57983-36.3,69.34985C1239.55,1428.84,1249.77,1449,1269.64,1465.32007c34.53992,28.33984,74.81995,44.99,118.12,52.2699,38.53,6.4801,77.77,9.95007,116.84,11.77,52.25,2.43005,104.14,4.88,153.91,23.34C1756.49,1589.06006,1812.37,1670.62,1808.62,1773.64Z"
		transform="translate(-27.54046 -179.69434)" style="fill:#1c95d6"/>
	<path
		d="M1671.4,2283.15991c14.23,61.8-16.33,127.36011-72.51,156.53a17.13789,17.13789,0,0,1-12.91.54c-17.1499-7.25-33.91992-15.37988-51.6-23.56006,14.28992-7.83984,28.75-14.54981,41.91-23.24,32.72-21.60986,45.37988-55.30982,37.05994-93.53-5.13-23.57983-19.00989-40.81982-41.03992-47.90991-23.41-7.53-48.09009-12.98-72.57007-14.88989-56.13-4.39014-108.67993-18.31006-154.2-52.2002-94.16-70.12988-81.71-176.97-30.73-243.85986,29.31995,10.35,57.63989,20.35,86.46,30.52-19.92,16.95-34.92993,37.68994-42.07007,64.15991-7.7,28.59009-1.26,53.15991,17.97,74.56006,29.22009,32.51,67.42017,47.59985,109.49,54.77,27.33008,4.65991,55.2301,7.40991,81.77,14.90991C1621.32007,2194.91992,1658.6,2227.62988,1671.4,2283.15991Z"
		transform="translate(-27.54046 -179.69434)" style="fill:#1c95d6"/>
	<path
		d="M593.6305,2783.95787V2462.952h81.825l119.59042,179.38564h314.71164V2538.48279L977.5787,2488.91571q-193.5483-76.71045-295.82894-237.2139Q581.04178,2090.0196,581.042,1839.823q-0.00019-297.4009,254.91641-502.75189Q1090.874,1131.72408,1500,1131.72171q409.12321,0.00248,664.04156,205.34935Q2418.95516,1542.42239,2418.958,1839.823q-0.00307,250.19691-102.28128,411.87886-100.71029,160.50358-294.25538,237.2139l-132.17889,49.56708v103.85484h314.71164L2324.54448,2462.952h81.825v321.00588H1638.47319V2510.15875q258.0615-84.97163,368.21253-273.79913,110.14677-188.826,110.14907-396.53667-0.00256-226.59078-151.06159-405.97806Q1814.70957,1254.46146,1500,1254.45928q-314.71292.0023-465.77319,179.38561Q883.1645,1613.23238,883.16521,1839.823q-0.00064,207.711,110.14907,396.53667,110.14811,188.82762,368.21258,273.79913v273.79913H593.63045"
		transform="translate(-27.54046 -179.69434)" style="fill:#1947ba"/>
	<path
		d="M1738.24,2031.1c11.8501,74.88-32.65991,132.93005-83.01,164.14-2.63989,1.63989-7.42993,1.84985-10.36.63989-29.42-12.1499-58.66-24.72-85.61-36.17993,14.11-6.79,32.71-13.67993,49.08008-24.07983,29.74-18.88013,54.07983-43.2102,50.66992-82.15015-3.58008-40.8999-23.54-72.2-61.49-90.46-26.96-12.98-55.88-15.43005-85.25-16.45-42.48-1.47009-85.29-1.08008-127.3-6.51-48.03-6.20007-92.61-24.24-128.68994-58.32007-49.41-46.65-57.3501-104.75-44.2-167.91992,6.72-32.26,20.15991-61.8,40.86987-87.6001,2.74-3.41992,9.79-6.88989,13.25-5.7,36.8,12.67993,73.27,26.3,109.75,39.63-2.38989,1.45-6.21,3.93994-10.17993,6.17-43.96,24.66992-59.3501,64.23-57.42,112.13989,0.72009,18.07007,12.14,31.01,26.2301,40.91,34.03992,23.9,73.2699,31.93005,113.74,35.1,41.45,3.24,83.52,2.43994,124.30994,9.3501C1664.01,1879.3,1724.04,1941.35,1738.24,2031.1Z"
		transform="translate(-27.54046 -179.69434)" style="fill:#1c95d6"/>
	<path
		d="M1881.12,1334.79C1857.18994,1263.5,1805.81006,1218.7,1740.1,1188.08c-64.71-30.16-133.92-41.45-204.5199-46.47-60.59009-4.31995-121.42017-7.1-181.57007-14.91-53.02-6.87988-102.91992-25.72-146.89-57.58-35.35-25.61-51.13-59.84-44.64-103.46,2.17993-14.66,4.55-29.33,7.78-43.78,14.16992-63.44,74.85-99.02,135.52-77.04,46.65991,16.9,90.45,9.87,133.73-8.72,11.01-4.73,20.89-13.33,29.57007-21.9,7.86987-7.77,8.04993-17.22.02991-26.85-23.1-27.73-50.01-50.66-84.01-63.02-13.81995-5.03-29.71-5.46-44.7-5.79-13.79-.32-27.64,2.19-41.45007,3.65-59.25,6.27-114.54993,23.36-166.38989,53.98-126.81006,74.9-141.17,274.04-42.67,367.55,74.27991,70.52,162.42,104.90991,261.28992,115.35,70.41016,7.44006,141.34009,9.79,212,14.9,47.53,3.42993,93.93005,12.04,136.98,33.86,23.02,11.67,44.12012,26.33,56.81006,49.12,26.17,47,23.93005,87.59009-21.68994,116.02-23.7,14.76-50.27,25-75.83008,36.65-7.99,3.63-16.91992,5.18994-25.41992,7.7C1682.22,1533.8,1726.40991,1554.78,1765.72,1585.71c2.65,2.09009,8.98,2.06006,12.29.41C1876.12,1536.96,1916.04,1438.82007,1881.12,1334.79Zm-524.9-590.1c4.05,3.81,10.21,7.05,11.43994,11.63,0.86011,3.17-5.04993,8.17-10.00989,15.37-5.3-6.86-11.05-11.06-10.8-14.85C1347.13,752.6,1352.86,748.72,1356.22,744.69Z"
		transform="translate(-27.54046 -179.69434)" style="fill:#1c95d6"/>
	<path
		d="M1593.82007,2635.51c-15.48,22.6499-36.38013,36.31006-64.92,35.74-3.74011-.07007-7.49011.32007-12.14,0.54-2.82007,44.3999-5.6001,88.33008-8.39,132.25-2.23.03-4.47,0.06982-6.71008,0.1001-3.45-43.58008-6.90991-87.15015-10.45-131.81006-26.49-.31006-49.03-10.1001-65.72-31.43994-14.6-18.69019-20.96-40.65015-23.89-63.7002-4.7699-37.63989,2.30994-72.24,26.5-102.61987,6.20007-7.79,11.52-11.23022,21.20007-5.39014,8.53,5.14014,18.1499,8.4602,29.56995,13.61011-46.46008,32.1499-54.02991,75.61987-42.18005,124.56006,6.67,27.5498,24.39014,45.595,54.53,53.75488-1.87988-57.55981-3.71-114.105-5.56995-171.105h36.25c-1.76,57-3.51,114.425-5.26,171.615,32.23-2.7,56.87-26.24255,64.28992-59.9425,14.38013-65.37012-15.25-113.76129-79.66992-132.58136-28.33008-8.27-57.56006-15.95059-83.48-29.47061-69.23-36.12988-96.43005-118.7751-63.52-185.21529,4.84-9.78,11.17993-18.82749,17.61-29.51743,23.42,8.31982,46.08,16.371,69.54993,24.71113-1.52991,2.17993-2.03992,3.79062-3.03992,4.20054-48.52,19.84009-52.89,102.81011-6.04993,133.88018,20.79993,13.81006,44.99,22.51016,67.62988,33.5502,21.78,10.62012,45.68005,18.35994,64.91,32.46C1620.16992,2494.26995,1632.65,2578.67993,1593.82007,2635.51Z"
		transform="translate(-27.54046 -179.69434)" style="fill:#1c95d6"/>
	<rect x="1455.45954" y="2072.30566" width="42" height="155" style="fill:#1c95d6"/>
	<rect x="1441.45954" y="1114.30566" width="73" height="214" style="fill:#1c95d6"/>
	<path
		d="M1547.43994,883.42q-0.56982,112.065-1.28,223.975A58.41855,58.41855,0,0,1,1545.29,1114H1466.21c-0.3-5-.79-9.43506-0.83-14.095-0.58-69.92-1.33-139.75757-1.37-209.67755a80.19294,80.19294,0,0,1,5.72-28.99377c10.88-27.33,22.97-54.16187,36.04-84.57184,14.56006,34.39,27.84,65.539,40.83,96.799C1547.82007,876.3909,1547.46,880.09,1547.43994,883.42Z"
		transform="translate(-27.54046 -179.69434)" style="fill:#1c95d6"/>
	<rect x="1449.45954" y="1778.30566" width="54" height="189" style="fill:#1c95d6"/>
	<rect x="1444.45954" y="1480.30566" width="65" height="188" style="fill:#1c95d6"/>
	<path
		d="M2972.45954,615.803c-28.26616,26.01291-58.73763,48.481-94.65223,63.32118-58.95392,24.36037-120.05053,25.74532-182.09561,18.93159-201.36562-22.11379-391.961-83.92421-579.39409-157.35051-1.67047-.65447-3.11028-1.89823-5.47452-3.37807,27.30594-2.58083,53.742-3.94045,79.77565-7.92833,18.277-2.79971,36.35085-8.173,53.90092-14.18948,29.08921-9.97224,50.85537-28.1635,59.08232-60.8543,20.35934,6.29568,40.191,12.592,60.11955,18.565,166.06182,49.77162,335.21411,85.56149,506.51066,111.54033,34.00626,5.15737,68.14811,9.42218,102.22734,14.09865v17.244Z"
		transform="translate(-27.54046 -179.69434)" style="fill:#1947ba"/>
	<path
		d="M1907.35916,495.70421c28.87625,10.44527,57.7525,20.89056,88.48272,32.00651-23.7145,17.557-45.64362,34.90359-68.87047,50.29106-6.71628,4.44948-17.338,5.14891-25.86228,4.33827-30.46463-2.89706-60.78543-7.28-91.19024-10.84993a27.857,27.857,0,0,0-17.27449,3.26184c20.98382,8.01645,41.96763,16.03291,65.603,25.06238-8.12293,3.85934-14.144,6.15881-19.59681,9.41127-20.07131,11.97206-41.02,22.86246-59.50543,36.95726-10.95956,8.35628-20.948,11.44415-33.87961,9.81108-20.82-2.6292-41.72152-4.61358-63.7673-3.67976l35.33783,16.48351c-69.41618,15.40571-136.58144,5.52837-204.447,5.02559,9.26173-29.29782,21.93193-57.88328,40.87269-83.32464,2.51843-3.383,8.93177-4.64665,13.77023-5.37923,16.04554-2.42949,32.4812-2.88535,48.25537-6.3972,61.96544-13.79576,100.88875-55.867,106.42028-119.35661,3.01117-34.55927-.37258-69.65663-0.43941-104.51216-0.02842-14.78726-.58782-29.86255,1.93061-44.31263,8.28624-47.54615,39.73232-72.068,93.05876-73.81986,39.37851-1.29365,76.89938,8.32363,113.64158,21.08266,96.335,33.45311,184.7021,83.09487,271.82465,135.11348,22.58272,13.48363,44.22469,28.53913,66.75549,42.115,8.92387,5.37708,10.1195,12.14624,3.87947,18.349-11.01587,10.95053-22.33889,22.53426-35.68235,30.02476-40.07315,22.49534-84.37626,29.83882-129.78552,31.658-55.03586,2.20477-108.51947-9.08534-162.23182-18.49356-11.9703-2.09669-24.05059-3.56392-36.08036-5.321Q1907.9689,493.47678,1907.35916,495.70421Z"
		transform="translate(-27.54046 -179.69434)" style="fill:#1947ba"/>
	<path
		d="M2721.54345,732.44566c-30.76354,10.9604-61.01662,23.73765-92.38429,32.54676-101.48393,28.5-203.28694,25.97511-305.001-.07126-123.332-31.58216-238.4141-82.14884-346.18946-149.62765-10.07617-6.30879-19.53717-13.60039-27.48627-19.17511,17.201-14.17913,34.51233-27.44447,50.65908-42.00151a78.54234,78.54234,0,0,1,88.75706-11.05931c104.45669,54.13576,216.32307,89.34023,329.102,121.32939,95.75839,27.16144,192.49034,50.1991,291.67072,61.35188,3.23693,0.364,6.39282,1.45147,9.58642,2.20172Q2720.90047,730.1931,2721.54345,732.44566Z"
		transform="translate(-27.54046 -179.69434)" style="fill:#1947ba"/>
	<path
		d="M1787.03323,669.14422c35.71006-27.72417,70.20309-54.77883,115.72235-59.14,10.47156-1.00328,23.01845,2.20036,32.17861,7.59616,129.23016,76.12273,264.05307,138.65129,411.15923,171.852,19.06636,4.30306,38.395,7.44443,61.50568,11.87168-12.54812,8.12872-22.24189,15.53359-32.89518,21.10283-34.65617,18.11714-72.39981,24.29359-110.89055,25.85022-81.29474,3.2878-159.66445-10.83993-232.30493-47.66708-80.12841-40.6233-158.6723-84.37257-237.88891-126.79282C1791.9815,672.93993,1790.557,671.6641,1787.03323,669.14422Z"
		transform="translate(-27.54046 -179.69434)" style="fill:#1947ba"/>
	<path
		d="M1608.96251,694.97839c31.33557-2.36161,62.69482-4.45374,93.99758-7.19393,16.66037-1.45849,33.66139-2.37542,49.69974-6.60423,14.59118-3.84724,25.1208.35868,37.22319,7.42395,95.85628,55.95937,194.05837,107.38331,296.45288,150.50508,3.41778,1.43932,6.7468,3.08984,10.117,4.64191l0.19734,4.67073c-35.342,4.9185-70.65742,10.05521-106.06892,14.40822-3.43374.42209-9.07947-3.06138-10.98114-6.31835-54.75326-93.77726-142.39609-133.2094-244.61308-148.86442-33.94013-5.19807-67.49223-4.0612-101.34044,2.27763-8.05206,1.508-17.81-6.09224-26.78338-9.50305Q1607.91291,697.70017,1608.96251,694.97839Z"
		transform="translate(-27.54046 -179.69434)" style="fill:#1947ba"/>
	<path
		d="M1608.57309,720.34016c-14.74273,9.81928-29.41039,18.79631-43.18115,28.9858-13.4294,9.937-25.94227,21.11323-39.07434,31.92382-10.23808-14.92766-13.77392-37.2495-15.75663-59.88428-3.03345-34.632-2.85-33.97385,31.94215-31.74946C1568.72675,691.29257,1590.40187,701.15088,1608.57309,720.34016Z"
		transform="translate(-27.54046 -179.69434)" style="fill:#1947ba"/>
	<path
		d="M1501.22206,676.88291c-64.56482-1.243-124.11086-2.30526-183.6504-3.6467-7.099-.16-14.16378-1.8419-22.12-5.40475q17.35817-8.16981,34.71616-16.33962-0.35351-1.19655-.7071-2.39305c-24.55394,2.42818-49.09035,5.06949-73.67692,7.10325-4.87276.403-10.84274-.10674-14.77071-2.6078-28.44859-18.11372-56.50276-36.84688-84.78217-55.44992,18.70711-7.2156,39.87221-15.37931,61.03741-23.543q-0.41823-2.27436-.83638-4.54868c-20.6,2.04406-41.23221,3.81382-61.78985,6.21977-16.14807,1.88992-32.27614,6.72067-48.2773,6.18534-11.99723-.40139-25.192-5.08826-35.3516-11.70749-19.13038-12.464-36.45513-27.69953-56.32814-43.18352,29.76885-10.88433,58.67983-21.455,87.59091-32.02576q-0.63-2.31728-1.26-4.63452c-22.8148,3.78389-45.70844,7.15-68.4293,11.43246-60.51441,11.40567-121.38263,19.596-182.41846,6.69106-26.83425-5.67362-52.79511-16.17557-78.4903-26.18519-9.89032-3.85274-18.78832-11.54041-26.65063-19.04042-15.9063-15.17329-14.88877-21.66328,3.48751-33.47,102.374-65.77509,207.3624-126.614,321.874-169.284,38.7657-14.44509,78.52073-24.63989,120.27243-24.36267,62.019,0.41179,96.60775,33.655,97.72585,95.41057,0.4581,25.29561-3.22079,50.65577-3.00257,75.96917,0.19287,22.36707.77244,45.22414,5.40453,66.96507,12.76984,59.93631,51.773,95.787,112.00785,105.8959,11.29539,1.89571,22.83856,3.626,34.21833,3.35665,12.61934-.2986,20.95628,4.23964,26.3594,15.35647C1475.37031,624.322,1487.51357,648.93078,1501.22206,676.88291Z"
		transform="translate(-27.54046 -179.69434)" style="fill:#1947ba"/>
	<path
		d="M27.54046,599.019C260.16585,571.81468,485.03718,524.0522,705.7076,454.76466c16.71514,55.37015,64.03911,65.5332,110.99281,74.32913,26.65682,4.99366,54.13326,5.6127,83.03372,8.37314-4.52114,2.22441-8.27589,4.346-12.23255,5.97881C740.96171,603.91953,591.213,654.21419,435.00771,683.17622c-73.95482,13.712-148.44709,23.474-224.01559,16.009-42.17543-4.16623-83.0295-13.38459-120.831-33.38239-22.3177-11.80651-41.72927-27.15684-55.44326-48.6954C31.60964,612.22586,30.31463,606.18975,27.54046,599.019Z"
		transform="translate(-27.54046 -179.69434)" style="fill:#1947ba"/>
	<path
		d="M1061.45084,598.25776c-43.22544,24.98139-86.55184,52.21247-131.81042,75.724C833.6931,723.826,733.38809,762.31007,625.71947,777.88809c-96.30494,13.93381-191.87419,10.06675-285.62212-18.16828-20.04087-6.03593-39.69715-13.49926-55.60924-31.50708,27.98661-4.07826,54.37917-7.07228,80.44249-11.85887C549.92547,682.379,729.60667,630.82851,901.229,552.92076c6.96011-3.15953,13.79593-6.62263,20.53677-10.23012,29.73263-15.912,58.94383-12.32664,84.83128,9.95928C1023.45609,567.16352,1040.79435,581.12039,1061.45084,598.25776Z"
		transform="translate(-27.54046 -179.69434)" style="fill:#1947ba"/>
	<path
		d="M606.62715,803.35515c50.5034-13.14913,101.83454-24.20114,151.67645-39.9626,110.36623-34.901,214.26571-84.65837,313.19482-144.55742,16.75807-10.1466,32.875-11.64631,50.57655-6.96283,37.92581,10.03438,69.03869,32.0881,99.30063,56.38291-0.95531,1.579-1.348,3.13168-2.31854,3.70366-93.9917,55.39094-187.91728,111.40162-290.73453,149.014-83.40753,30.512-169.70335,37.92388-256.90036,15.71681C646.89309,830.4427,623.92594,820.11625,606.62715,803.35515Z"
		transform="translate(-27.54046 -179.69434)" style="fill:#1947ba"/>
	<path
		d="M1402.94559,694.642c-8.60225,11.48125-16.1293,15.94586-29.36531,14.12733-109.5859-15.05594-206.21488,16.48855-292.28432,83.85277-22.09349,17.29195-40.43082,37.90446-53.03718,63.37174-1.62943,3.29183-7.06334,7.23209-10.23642,6.83973-34.99218-4.32678-69.88568-9.452-104.80585-14.36086q0.02881-2.14346.05754-4.28687c1.73845-1.13985,3.34525-2.602,5.2342-3.37336,105.63346-43.13515,205.83624-97.06221,304.56362-153.83414,11.079-6.37085,20.81542-7.62813,33.57009-6.07457,44.61473,5.43409,89.50012,8.64637,134.283,12.6995C1394.13433,693.8938,1397.346,694.159,1402.94559,694.642Z"
		transform="translate(-27.54046 -179.69434)" style="fill:#1947ba"/>
	<path
		d="M1485.73942,774.48618c-25.68134-19.78244-51.54054-39.70193-77.30634-59.5495,17.212-20.1374,44.78058-28.76065,87.16605-25.8261C1503.11408,711.35634,1498.04986,752.74681,1485.73942,774.48618Z"
		transform="translate(-27.54046 -179.69434)" style="fill:#1947ba"/>
	<path
		d="M1503.64648,580.43164c-10.38867,0-19.61426-5.22949-29.0332-16.45752-3.26025-3.89795-9.69043-14.38135-12.74512-20.77783-7.20264-15.18164-12.94824-33.34961-17.56836-55.55127-0.28223-1.35205-.521-2.478-0.72022-3.40869-27.04053,9.14893-51.57178,13.98633-70.93359,13.98633h-0.00293c-2.52393-.00049-4.97949-0.085-7.29785-0.252-15.65869-1.14111-27.30566-6.53857-33.68408-15.60889-5.59033-7.94922-6.81445-18.34863-3.54053-30.07373,2.14551-7.72266,5.94385-15.41943,12.314-24.95117,7.99024-11.959,17.72754-23.24072,31.57129-36.57959,3.45557-3.32959,8.22559-7.72412,11.61377-10.72217-0.60352-.5498-1.334-1.21387-2.21875-2.01611-15.55664-13.95508-28.41016-27.81738-38.18848-41.18848-3.10693-4.229-10.90234-17.769-12.44385-21.61621-2.69922-6.92236-3.98437-12.20752-4.31152-17.70605-0.63037-10.60791,3.43213-19.94189,11.43848-26.28271a44.415,44.415,0,0,1,15.08935-7.17725,80.31769,80.31769,0,0,1,20.49121-2.3374,174.50094,174.50094,0,0,1,33.53272,3.7124c7.28467,1.46338,26.05811,6.52881,34.05371,9.189,0.92432,0.31787,1.77978.603,2.542,0.85156,0.165-.76758.34815-1.64355,0.54541-2.61816,1.69482-8.32373,6.70459-27.1123,9.08594-34.0791,12.66553-36.8623,28.73242-56.6958,47.75635-58.9541a17.97885,17.97885,0,0,1,2.18555-.11816,35.705,35.705,0,0,1,9.58887,1.37012c7.36719,2.32861,13.87207,7.21777,21.085,15.85059,3.00586,3.61865,11.81836,18.88672,13.92383,23.77539,6.7002,15.73,11.78613,32.49023,16.01172,52.76074,0.1875,0.90576.3584,1.72656,0.5127,2.45654,0.50391-.165,2.15527-0.70752,2.15527-0.70752,26.18262-8.65576,49.89258-13.23193,68.56055-13.23193a79.12858,79.12858,0,0,1,19.459,2.145c11.77832,3.02686,20.16309,9.28906,24.24707,18.10986,4.66406,10.07324,3.50488,22.86475-3.35352,36.99121-8.72852,17.95947-27.332,40.13086-51.04785,60.83984,0.55566,0.50244,1.1748,1.05762,1.84277,1.65088a288.7773,288.7773,0,0,1,32.36328,33.44141,111.56869,111.56869,0,0,1,12.50977,18.46973c4.22754,7.33057,5.30273,9.3999,6.39355,12.30127,5.6377,15.16895,5.24219,26.66357-1.24023,36.18848-3.0625,4.4917-5.293,6.52393-10.377,9.45508a39.25432,39.25432,0,0,1-11.55176,4.69043,79.53174,79.53174,0,0,1-19.82422,2.24951c-9.86621,0-21.52441-1.34717-34.65234-4.00488-7.21582-1.44287-24.06152-6.01221-32.7627-8.8877-1.041-.34912-1.97949-0.65625-2.7959-0.91846-0.18652.84229-.39258,1.80176-0.61231,2.8501-1.80762,8.81885-6.26758,25.59326-8.834,33.22266-8.02051,23.83057-17.0293,39.79346-28.35059,50.23633a33.30287,33.30287,0,0,1-7.31836,5.1123c-3.76367,2.13428-4.95312,2.70654-7.99707,3.42432A32.79428,32.79428,0,0,1,1503.64648,580.43164Zm-42.83594-102.354c0.90967,4.438,2.80762,13.2124,3.62891,16.60889,7.2041,29.46631,17.39746,52.08008,27.96387,62.03369,2.9585,2.771,5.36133,4.23193,8.28516,5.03564a13.37018,13.37018,0,0,0,3.53027.51514c2.94531,0,5.82715-1.2793,9.34375-4.147,13.03418-10.60645,25.0166-39.0127,32.87891-77.938l0.36621-1.80811-2.46777-.97021c-11.62207-4.57422-28.76367-12.17432-39.02539-17.30322l-1.54394-.76025-3.15039,1.52051c-10.07471,4.9292-26.33789,12.01416-37.00488,16.12012C1463.05127,477.20068,1461.86816,477.65332,1460.81055,478.07764Zm108.43359-11.041c25.80957,8.73438,48.418,13.35059,65.38672,13.35059,7.498,0,13.7002-.90771,18.43359-2.69775,6.63086-2.51562,8.665-5.50781,9.67871-9.22607,0.7832-2.915.77734-5.19385-.02832-9.01611-3.4375-16.24854-21.209-39.68262-48.75781-64.28955-1.53906-1.37842-2.74609-2.45557-3.667-3.27246-2.9873,2.47656-7.2334,5.75781-10.19629,8.01953-8.35059,6.395-19.21875,14.21826-26.42481,19.02148l-1.08887.72656-0.10937,1.73584c-0.709,11.55811-2.63281,29.53418-4.47461,41.80811l-0.49512,3.25244Zm-171.94238-75.37256c-3.13818,2.76807-8.98389,8.06494-11.99365,10.94727-21.32812,20.4082-35.35449,39.4873-39.49609,53.72363-3.23731,11.05078-.97852,17.0835,7.79394,20.83154a54.84793,54.84793,0,0,0,11.76563,2.76709,78.89915,78.89915,0,0,0,7.88672.37158c16.855,0,39.74756-4.57812,64.46045-12.89111q1.54614-.52148,2.61914-0.90674c-0.14258-1.0083-.32324-2.24609-0.53564-3.64893-1.79834-11.80566-3.31885-25.53027-4.28027-38.64355l-0.32129-4.58887-4.08008-2.792c-11.85254-8.188-21.86572-15.61914-31.52686-23.396C1398.6958,392.728,1397.9292,392.13721,1397.30176,391.66406Zm57.11475,40.38574c0.5708,5.94922,1.46582,14.26611,2.24365,20.17529,0.46777,3.644.82324,6.18359,1.08887,7.94775,6.2793-2.53076,18.49268-7.79639,26.019-11.19922-0.04443-.02441-0.08936-0.04883-0.13428-0.07324C1475.40772,444.45654,1462.33154,436.88428,1454.4165,432.0498Zm69.65674,16.86377c7.7666,3.51221,19.7041,8.59473,25.90527,11.0708,0.84277-5.62939,2.16309-15.69873,2.877-22.75586,0.17578-1.80811.34277-3.55127,0.49023-5.12744-3.12793,1.76416-7.77539,4.41748-14.61523,8.36133Zm-68.21582-37.41064c13.85107,8.86182,30.7251,18.59961,45.15234,26.05811l2.91992,1.51025,1.63379-.79c4.4248-2.13281,43.80957-24.8418,47.89258-27.61426l1.52734-1.03369,0.21191-4.72119c0.40723-9.42627.624-23.84717,0.49219-32.82471-0.13086-7.8916-.49512-17.64795-0.71875-21.43359-3.19727-2.11279-11.58984-7.40039-18.19238-11.36084-8.10937-4.85107-20.69434-11.88672-28.64746-16.01465l-4.21875-2.19629-0.57324.27c-3.50977,1.6748-40.01807,22.502-44.88574,25.6084-2.17725,1.37891-4.48584,2.8335-5.55762,3.50537l-0.1084,2.12012c-0.84766,15.5957-.87109,33.89111-0.07031,54.3916l0.10889,2.60352Zm117.80176-48.251c0.28711,10.25146.28613,23.75049-.0127,33.82959,1.166-.82764,2.48242-1.76416,3.92871-2.79248,6.62012-4.7207,14.49316-10.66406,18.80078-14.0498C1591.43555,376.2959,1581.56445,368.84277,1573.65918,363.252ZM1411.32275,380.0498c5.42969,4.22607,16.15576,12.19287,22.89258,17.02246-0.31055-11.48682-.32324-23.0918-0.03369-33.82568l0.00586-.21045c-0.15625.11182-.29834,0.21289-0.42236,0.30176C1426.54834,368.46533,1416.5083,376.0083,1411.32275,380.0498Zm-38.09082-100.24707c-7.53955,0-13.74854.90332-18.45557,2.68457-5.35449,2.04248-8.30859,4.70557-9.56934,8.63135-4.58789,14.41992,14.39551,43.436,48.36621,73.91162,1.49707,1.34912,2.80273,2.50732,3.78809,3.37158,0.59619-.46729,1.251-0.98926,1.81494-1.439,9.49072-7.66455,22.83789-17.51465,33.19287-24.49414l2.88672-1.95752,0.09619-1.72168c0.77832-12.09912,2.62451-29.27588,4.4917-41.80469l0.49658-3.26611-1.54541-.52539C1413.14648,284.43262,1390.47705,279.80273,1373.23193,279.80273Zm203.1333,63.19043c10.94043,7.46729,22.05566,15.65771,31.31152,23.07275,1.11719,0.89453,2.10547,1.67627,2.90918,2.30713,0.582-.48779,1.28125-1.08789,2.08984-1.80029,23.041-20.28809,39.75781-40.312,47.07422-56.38428a52.56215,52.56215,0,0,0,3.53516-11.89209c0.72754-7.8418-1.40332-13.70459-14.16406-16.84326a63.303,63.303,0,0,0-14.90527-1.543c-16.47168,0-37.77148,4.15283-61.5957,12.00879l-2.16113.71191c-1.13086.37158-2.12891,0.7002-2.93945,0.97217,2.11816,13.65723,4.29883,33.25928,4.98731,45.07568l0.09863,1.772Zm-52.20117-31.79639c8.792,4.77441,19.915,11.23145,29.2666,16.98145-0.8623-9.48291-2.37793-21.8916-3.31543-28.20605C1544.40527,302.25732,1533.46484,306.92383,1524.16406,311.19678Zm-66.30273-11.02588c-0.76172,5.07227-1.91064,13.7832-2.63086,20.69824-0.19141,1.73926-.46387,4.52979-0.71289,7.19385,3.12744-1.76416,7.76807-4.41357,14.5918-8.34814l14.647-8.44531C1476.1084,307.80811,1464.17822,302.6709,1457.86133,300.1709Zm6.1875-17.18652c11.583,4.564,25.10205,10.52393,36.167,15.94434l3.86133,1.8999c3.62109-1.84131,16.51758-7.81689,21.99121-10.168,6.1543-2.67285,16.30664-6.8418,20.875-8.57178l0.06934-.02637-0.98047-4.77832c-7.67773-36.86768-18.77344-63.293-31.23926-74.39648a17.79473,17.79473,0,0,0-7.8252-4.53809,12.22487,12.22487,0,0,0-3.18848-.48193,11.1141,11.1141,0,0,0-3.44238.60889c-8.38721,2.728-17.67041,15.19092-25.44287,34.18408-4.93506,12.05518-9.97949,29.74609-13.49414,47.32275l-0.36719,1.81543Z"
		transform="translate(-27.54046 -179.69434)" style="fill:#1c95d6"/>
	<path
		d="M1504.165,405.58936a26.12013,26.12013,0,0,1-17.27-6.48828c-2.31055-2.09863-2.96143-2.95166-4.98877-6.53467-1.91113-3.31494-2.4624-4.47607-3.03516-7.34473a25.97006,25.97006,0,0,1,8.498-24.60449,28.475,28.475,0,0,1,9.69092-5.144,34.29566,34.29566,0,0,1,5.46143-.87061c0.46387-.03174.86426-0.04443,1.27539-0.04443a27.77983,27.77983,0,0,1,13.91309,3.99854,26.068,26.068,0,0,1,11.71191,22.67676,26.8514,26.8514,0,0,1-7.71,17.22656,29.86382,29.86382,0,0,1-10.80957,6.23242,25.49059,25.49059,0,0,1-6.73633.897h-0.001Z"
		transform="translate(-27.54046 -179.69434)" style="fill:#1c95d6"/>
</svg>
